<svg xmlns="http://www.w3.org/2000/svg" width="29.442" height="23.681" viewBox="0 0 29.442 23.681"><path d="M29.824,4.214,1.574,14.169c-.454.16-.555.552-.016.766l6.074,2.434h0l3.6,1.442S28.573,6.078,28.806,5.9s.509.152.338.338S16.55,19.864,16.55,19.864v0l-.723.805.958.515,7.971,4.291a.815.815,0,0,0,1.2-.534c.158-.682,4.552-19.618,4.65-20.04.126-.549-.237-.883-.786-.69ZM11.2,27.459c0,.394.222.5.53.226.4-.366,4.56-4.1,4.56-4.1l-5.09-2.63v6.5Z" transform="translate(-1.192 -4.159)" fill="#63c9ef"/></svg>